<svg preserveAspectRatio="none" width="100%" height="100%" overflow="visible" style="display: block;" viewBox="0 0 397 869" fill="none" xmlns="http://www.w3.org/2000/svg">
<g id="Group 3">
<path id="Vector 10" d="M133.5 790.5H68V662M133 135V333H68V532M133 135V4H99M133 135H99M68 662H36M68 662V532M68 532H4" stroke="var(--stroke-0, #999999)"/>
<path id="Vector 9" d="M393 865.5V596M393 596H328V466.5M393 596V466.5M328 466.5V335H393V466.5M328 466.5H393" stroke="var(--stroke-0, #999999)"/>
<path id="Vector 1" d="M392.5 865.5L133.5 865.5" stroke="var(--stroke-0, #999999)" stroke-dasharray="22 22"/>
<path id="Vector 3" d="M198 866.25L198 800.25" stroke="var(--stroke-0, #999999)" stroke-dasharray="22 22"/>
<path id="Vector 4" d="M263 866L263 800" stroke="var(--stroke-0, #999999)" stroke-dasharray="22 22"/>
<path id="Vector 5" d="M328 866.25L328 800.25" stroke="var(--stroke-0, #999999)" stroke-dasharray="22 22"/>
<path id="Vector 2" d="M392.5 800L133.5 800" stroke="var(--stroke-0, #999999)" stroke-dasharray="22 22"/>
<circle id="Ellipse 1" cx="68" cy="865" r="3.5" fill="var(--fill-0, #999999)" stroke="var(--stroke-0, #999999)"/>
<circle id="Ellipse 3" cx="133" cy="865" r="3.5" fill="var(--fill-0, #999999)" stroke="var(--stroke-0, #999999)"/>
<circle id="Ellipse 5" cx="393" cy="865" r="3.5" fill="var(--fill-0, #999999)" stroke="var(--stroke-0, #999999)"/>
<circle id="Ellipse 2" cx="68" cy="800" r="3.5" fill="var(--fill-0, #999999)" stroke="var(--stroke-0, #999999)"/>
<circle id="Ellipse 20" cx="68" cy="789" r="3.5" fill="var(--fill-0, #999999)" stroke="var(--stroke-0, #999999)"/>
<circle id="Ellipse 22" cx="68" cy="727" r="3.5" fill="var(--fill-0, #999999)" stroke="var(--stroke-0, #999999)"/>
<circle id="Ellipse 25" cx="68" cy="597" r="3.5" fill="var(--fill-0, #999999)" stroke="var(--stroke-0, #999999)"/>
<circle id="Ellipse 27" cx="68" cy="464" r="3.5" fill="var(--fill-0, #999999)" stroke="var(--stroke-0, #999999)"/>
<circle id="Ellipse 23" cx="68" cy="662" r="3.5" fill="var(--fill-0, #999999)" stroke="var(--stroke-0, #999999)"/>
<circle id="Ellipse 26" cx="68" cy="532" r="3.5" fill="var(--fill-0, #999999)" stroke="var(--stroke-0, #999999)"/>
<circle id="Ellipse 30" cx="4" cy="532" r="3.5" fill="var(--fill-0, #999999)" stroke="var(--stroke-0, #999999)"/>
<circle id="Ellipse 28" cx="68" cy="399" r="3.5" fill="var(--fill-0, #999999)" stroke="var(--stroke-0, #999999)"/>
<circle id="Ellipse 29" cx="68" cy="333" r="3.5" fill="var(--fill-0, #999999)" stroke="var(--stroke-0, #999999)"/>
<circle id="Ellipse 31" cx="133" cy="333" r="3.5" fill="var(--fill-0, #999999)" stroke="var(--stroke-0, #999999)"/>
<circle id="Ellipse 32" cx="133" cy="266" r="3.5" fill="var(--fill-0, #999999)" stroke="var(--stroke-0, #999999)"/>
<circle id="Ellipse 33" cx="133" cy="201" r="3.5" fill="var(--fill-0, #999999)" stroke="var(--stroke-0, #999999)"/>
<circle id="Ellipse 34" cx="133" cy="135" r="3.5" fill="var(--fill-0, #999999)" stroke="var(--stroke-0, #999999)"/>
<circle id="Ellipse 35" cx="133" cy="69" r="3.5" fill="var(--fill-0, #999999)" stroke="var(--stroke-0, #999999)"/>
<circle id="Ellipse 36" cx="133" cy="4" r="3.5" fill="var(--fill-0, #999999)" stroke="var(--stroke-0, #999999)"/>
<circle id="Ellipse 37" cx="99" cy="4" r="3.5" fill="var(--fill-0, #999999)" stroke="var(--stroke-0, #999999)"/>
<circle id="Ellipse 38" cx="99" cy="135" r="3.5" fill="var(--fill-0, #999999)" stroke="var(--stroke-0, #999999)"/>
<circle id="Ellipse 24" cx="36" cy="662" r="3.5" fill="var(--fill-0, #999999)" stroke="var(--stroke-0, #999999)"/>
<circle id="Ellipse 4" cx="133" cy="800" r="3.5" fill="var(--fill-0, #999999)" stroke="var(--stroke-0, #999999)"/>
<circle id="Ellipse 21" cx="133" cy="789" r="3.5" fill="var(--fill-0, #999999)" stroke="var(--stroke-0, #999999)"/>
<circle id="Ellipse 6" cx="393" cy="800" r="3.5" fill="var(--fill-0, #999999)" stroke="var(--stroke-0, #999999)"/>
<circle id="Ellipse 7" cx="393" cy="790" r="3.5" fill="var(--fill-0, #999999)" stroke="var(--stroke-0, #999999)"/>
<circle id="Ellipse 8" cx="393" cy="727" r="3.5" fill="var(--fill-0, #999999)" stroke="var(--stroke-0, #999999)"/>
<circle id="Ellipse 9" cx="393" cy="660" r="3.5" fill="var(--fill-0, #999999)" stroke="var(--stroke-0, #999999)"/>
<circle id="Ellipse 10" cx="393" cy="596" r="3.5" fill="var(--fill-0, #999999)" stroke="var(--stroke-0, #999999)"/>
<circle id="Ellipse 12" cx="393" cy="532" r="3.5" fill="var(--fill-0, #999999)" stroke="var(--stroke-0, #999999)"/>
<circle id="Ellipse 14" cx="393" cy="464" r="3.5" fill="var(--fill-0, #999999)" stroke="var(--stroke-0, #999999)"/>
<circle id="Ellipse 16" cx="393" cy="402" r="3.5" fill="var(--fill-0, #999999)" stroke="var(--stroke-0, #999999)"/>
<circle id="Ellipse 18" cx="393" cy="336" r="3.5" fill="var(--fill-0, #999999)" stroke="var(--stroke-0, #999999)"/>
<circle id="Ellipse 11" cx="328" cy="596" r="3.5" fill="var(--fill-0, #999999)" stroke="var(--stroke-0, #999999)"/>
<circle id="Ellipse 13" cx="328" cy="532" r="3.5" fill="var(--fill-0, #999999)" stroke="var(--stroke-0, #999999)"/>
<circle id="Ellipse 15" cx="328" cy="464" r="3.5" fill="var(--fill-0, #999999)" stroke="var(--stroke-0, #999999)"/>
<circle id="Ellipse 17" cx="328" cy="402" r="3.5" fill="var(--fill-0, #999999)" stroke="var(--stroke-0, #999999)"/>
<circle id="Ellipse 19" cx="328" cy="336" r="3.5" fill="var(--fill-0, #999999)" stroke="var(--stroke-0, #999999)"/>
</g>
</svg>
