<svg preserveAspectRatio="none" width="100%" height="100%" overflow="visible" style="display: block;" viewBox="0 0 934 578" fill="none" xmlns="http://www.w3.org/2000/svg">
<g id="Group 5">
<path id="Vector 13" d="M467 567V502H597M597 502V469H727M597 502H727M727 502H922V469H727M727 502V469" stroke="var(--stroke-0, #999999)"/>
<path id="Vector 14" d="M898 459H865V329M898 4H865V134M865 134H930M865 134V329M865 329H898" stroke="var(--stroke-0, #999999)"/>
<path id="Vector 1" d="M392.909 567L198.909 567" stroke="var(--stroke-0, #999999)" stroke-dasharray="18 18"/>
<path id="Vector 21" d="M134 308L134 502" stroke="var(--stroke-0, #999999)" stroke-dasharray="18 18"/>
<path id="Vector 19" d="M199 576L5 576" stroke="var(--stroke-0, #999999)" stroke-width="4" stroke-dasharray="18 18"/>
<path id="Vector 20" d="M199 493L5 493" stroke="var(--stroke-0, #999999)" stroke-width="4" stroke-dasharray="18 18"/>
<path id="Vector 16" d="M264 567L264 502" stroke="var(--stroke-0, #999999)" stroke-dasharray="18 18"/>
<path id="Vector 22" d="M134 436.909L69 436.909" stroke="var(--stroke-0, #999999)" stroke-dasharray="18 18"/>
<path id="Vector 17" d="M328 567L328 502" stroke="var(--stroke-0, #999999)" stroke-dasharray="18 18"/>
<path id="Vector 23" d="M134 372.909L69 372.909" stroke="var(--stroke-0, #999999)" stroke-dasharray="18 18"/>
<path id="Vector 15" d="M392.909 502L198.909 502" stroke="var(--stroke-0, #999999)" stroke-dasharray="18 18"/>
<path id="Vector 24" d="M69 308L69 502" stroke="var(--stroke-0, #999999)" stroke-dasharray="18 18"/>
<circle id="Ellipse 43" cx="393" cy="567" r="3.5" fill="var(--fill-0, #999999)" stroke="var(--stroke-0, #999999)"/>
<circle id="Ellipse 74" cx="199" cy="567" r="3.5" fill="var(--fill-0, #999999)" stroke="var(--stroke-0, #999999)"/>
<circle id="Ellipse 76" cx="134" cy="567" r="3.5" fill="var(--fill-0, #999999)" stroke="var(--stroke-0, #999999)"/>
<circle id="Ellipse 78" cx="69" cy="567" r="3.5" fill="var(--fill-0, #999999)" stroke="var(--stroke-0, #999999)"/>
<circle id="Ellipse 80" cx="4" cy="567" r="3.5" fill="var(--fill-0, #999999)" stroke="var(--stroke-0, #999999)"/>
<circle id="Ellipse 44" cx="458" cy="567" r="3.5" fill="var(--fill-0, #999999)" stroke="var(--stroke-0, #999999)"/>
<circle id="Ellipse 47" cx="467" cy="567" r="3.5" fill="var(--fill-0, #999999)" stroke="var(--stroke-0, #999999)"/>
<circle id="Ellipse 45" cx="393" cy="502" r="3.5" fill="var(--fill-0, #999999)" stroke="var(--stroke-0, #999999)"/>
<circle id="Ellipse 75" cx="199" cy="502" r="3.5" fill="var(--fill-0, #999999)" stroke="var(--stroke-0, #999999)"/>
<circle id="Ellipse 77" cx="134" cy="502" r="3.5" fill="var(--fill-0, #999999)" stroke="var(--stroke-0, #999999)"/>
<circle id="Ellipse 79" cx="69" cy="502" r="3.5" fill="var(--fill-0, #999999)" stroke="var(--stroke-0, #999999)"/>
<circle id="Ellipse 81" cx="4" cy="502" r="3.5" fill="var(--fill-0, #999999)" stroke="var(--stroke-0, #999999)"/>
<path id="Vector 18" d="M199 567H4V502H199V567Z" stroke="var(--stroke-0, #999999)"/>
<circle id="Ellipse 46" cx="458" cy="502" r="3.5" fill="var(--fill-0, #999999)" stroke="var(--stroke-0, #999999)"/>
<circle id="Ellipse 48" cx="467" cy="502" r="3.5" fill="var(--fill-0, #999999)" stroke="var(--stroke-0, #999999)"/>
<circle id="Ellipse 49" cx="532" cy="502" r="3.5" fill="var(--fill-0, #999999)" stroke="var(--stroke-0, #999999)"/>
<circle id="Ellipse 50" cx="597" cy="502" r="3.5" fill="var(--fill-0, #999999)" stroke="var(--stroke-0, #999999)"/>
<circle id="Ellipse 52" cx="662" cy="502" r="3.5" fill="var(--fill-0, #999999)" stroke="var(--stroke-0, #999999)"/>
<circle id="Ellipse 54" cx="727" cy="502" r="3.5" fill="var(--fill-0, #999999)" stroke="var(--stroke-0, #999999)"/>
<circle id="Ellipse 56" cx="792" cy="502" r="3.5" fill="var(--fill-0, #999999)" stroke="var(--stroke-0, #999999)"/>
<circle id="Ellipse 58" cx="857" cy="502" r="3.5" fill="var(--fill-0, #999999)" stroke="var(--stroke-0, #999999)"/>
<circle id="Ellipse 60" cx="922" cy="502" r="3.5" fill="var(--fill-0, #999999)" stroke="var(--stroke-0, #999999)"/>
<circle id="Ellipse 51" cx="597" cy="469" r="3.5" fill="var(--fill-0, #999999)" stroke="var(--stroke-0, #999999)"/>
<circle id="Ellipse 53" cx="662" cy="469" r="3.5" fill="var(--fill-0, #999999)" stroke="var(--stroke-0, #999999)"/>
<circle id="Ellipse 55" cx="727" cy="469" r="3.5" fill="var(--fill-0, #999999)" stroke="var(--stroke-0, #999999)"/>
<circle id="Ellipse 57" cx="792" cy="469" r="3.5" fill="var(--fill-0, #999999)" stroke="var(--stroke-0, #999999)"/>
<circle id="Ellipse 59" cx="857" cy="469" r="3.5" fill="var(--fill-0, #999999)" stroke="var(--stroke-0, #999999)"/>
<circle id="Ellipse 61" cx="922" cy="469" r="3.5" fill="var(--fill-0, #999999)" stroke="var(--stroke-0, #999999)"/>
<circle id="Ellipse 62" cx="898" cy="459" r="3.5" fill="var(--fill-0, #999999)" stroke="var(--stroke-0, #999999)"/>
<circle id="Ellipse 65" cx="898" cy="329" r="3.5" fill="var(--fill-0, #999999)" stroke="var(--stroke-0, #999999)"/>
<circle id="Ellipse 63" cx="865" cy="459" r="3.5" fill="var(--fill-0, #999999)" stroke="var(--stroke-0, #999999)"/>
<circle id="Ellipse 66" cx="865" cy="329" r="3.5" fill="var(--fill-0, #999999)" stroke="var(--stroke-0, #999999)"/>
<circle id="Ellipse 67" cx="865" cy="199" r="3.5" fill="var(--fill-0, #999999)" stroke="var(--stroke-0, #999999)"/>
<circle id="Ellipse 69" cx="865" cy="69" r="3.5" fill="var(--fill-0, #999999)" stroke="var(--stroke-0, #999999)"/>
<circle id="Ellipse 71" cx="865" cy="4" r="3.5" fill="var(--fill-0, #999999)" stroke="var(--stroke-0, #999999)"/>
<circle id="Ellipse 72" cx="898" cy="4" r="3.5" fill="var(--fill-0, #999999)" stroke="var(--stroke-0, #999999)"/>
<circle id="Ellipse 73" cx="930" cy="134" r="3.5" fill="var(--fill-0, #999999)" stroke="var(--stroke-0, #999999)"/>
<circle id="Ellipse 64" cx="865" cy="394" r="3.5" fill="var(--fill-0, #999999)" stroke="var(--stroke-0, #999999)"/>
<circle id="Ellipse 68" cx="865" cy="264" r="3.5" fill="var(--fill-0, #999999)" stroke="var(--stroke-0, #999999)"/>
<circle id="Ellipse 70" cx="865" cy="134" r="3.5" fill="var(--fill-0, #999999)" stroke="var(--stroke-0, #999999)"/>
</g>
</svg>
