<svg preserveAspectRatio="none" width="100%" height="100%" overflow="visible" style="display: block;" viewBox="0 0 643 756" fill="none" xmlns="http://www.w3.org/2000/svg">
<g id="Group 10">
<path id="Vector 31" d="M273 752V720H403M598 752.5V720H403M403 720V752" stroke="var(--stroke-0, #999999)"/>
<circle id="Ellipse 82" cx="574" cy="4" r="3.5" fill="var(--fill-0, #999999)" stroke="var(--stroke-0, #999999)"/>
<circle id="Ellipse 83" cx="607" cy="4" r="3.5" fill="var(--fill-0, #999999)" stroke="var(--stroke-0, #999999)"/>
<circle id="Ellipse 84" cx="607" cy="69" r="3.5" fill="var(--fill-0, #999999)" stroke="var(--stroke-0, #999999)"/>
<circle id="Ellipse 85" cx="607" cy="134" r="3.5" fill="var(--fill-0, #999999)" stroke="var(--stroke-0, #999999)"/>
<circle id="Ellipse 86" cx="607" cy="199" r="3.5" fill="var(--fill-0, #999999)" stroke="var(--stroke-0, #999999)"/>
<circle id="Ellipse 87" cx="607" cy="264" r="3.5" fill="var(--fill-0, #999999)" stroke="var(--stroke-0, #999999)"/>
<circle id="Ellipse 88" cx="607" cy="329" r="3.5" fill="var(--fill-0, #999999)" stroke="var(--stroke-0, #999999)"/>
<circle id="Ellipse 89" cx="607" cy="394" r="3.5" fill="var(--fill-0, #999999)" stroke="var(--stroke-0, #999999)"/>
<circle id="Ellipse 90" cx="607" cy="459" r="3.5" fill="var(--fill-0, #999999)" stroke="var(--stroke-0, #999999)"/>
<circle id="Ellipse 91" cx="607" cy="524" r="3.5" fill="var(--fill-0, #999999)" stroke="var(--stroke-0, #999999)"/>
<circle id="Ellipse 92" cx="607" cy="589" r="3.5" fill="var(--fill-0, #999999)" stroke="var(--stroke-0, #999999)"/>
<circle id="Ellipse 93" cx="607" cy="654" r="3.5" fill="var(--fill-0, #999999)" stroke="var(--stroke-0, #999999)"/>
<circle id="Ellipse 94" cx="607" cy="719" r="3.5" fill="var(--fill-0, #999999)" stroke="var(--stroke-0, #999999)"/>
<circle id="Ellipse 95" cx="639" cy="719" r="3.5" fill="var(--fill-0, #999999)" stroke="var(--stroke-0, #999999)"/>
<circle id="Ellipse 96" cx="639" cy="524" r="3.5" fill="var(--fill-0, #999999)" stroke="var(--stroke-0, #999999)"/>
<circle id="Ellipse 97" cx="639" cy="329" r="3.5" fill="var(--fill-0, #999999)" stroke="var(--stroke-0, #999999)"/>
<circle id="Ellipse 98" cx="639" cy="134" r="3.5" fill="var(--fill-0, #999999)" stroke="var(--stroke-0, #999999)"/>
<path id="Vector 26" d="M5 306L191 306L191 751.5" stroke="var(--stroke-0, #999999)" stroke-width="4" stroke-dasharray="18 18"/>
<path id="Vector 27" d="M199 223L5 223" stroke="var(--stroke-0, #999999)" stroke-width="4" stroke-dasharray="18 18"/>
<circle id="Ellipse 99" cx="199" cy="297" r="3.5" fill="var(--fill-0, #999999)" stroke="var(--stroke-0, #999999)"/>
<circle id="Ellipse 100" cx="134" cy="297" r="3.5" fill="var(--fill-0, #999999)" stroke="var(--stroke-0, #999999)"/>
<circle id="Ellipse 101" cx="69" cy="297" r="3.5" fill="var(--fill-0, #999999)" stroke="var(--stroke-0, #999999)"/>
<circle id="Ellipse 102" cx="4" cy="297" r="3.5" fill="var(--fill-0, #999999)" stroke="var(--stroke-0, #999999)"/>
<circle id="Ellipse 103" cx="199" cy="232" r="3.5" fill="var(--fill-0, #999999)" stroke="var(--stroke-0, #999999)"/>
<circle id="Ellipse 104" cx="134" cy="232" r="3.5" fill="var(--fill-0, #999999)" stroke="var(--stroke-0, #999999)"/>
<circle id="Ellipse 105" cx="69" cy="232" r="3.5" fill="var(--fill-0, #999999)" stroke="var(--stroke-0, #999999)"/>
<circle id="Ellipse 106" cx="4" cy="232" r="3.5" fill="var(--fill-0, #999999)" stroke="var(--stroke-0, #999999)"/>
<path id="Vector 28" d="M199 297H4V232H199V297Z" stroke="var(--stroke-0, #999999)"/>
<path id="Vector 29" d="M199 297H4V232H199V297Z" stroke="var(--stroke-0, #999999)"/>
<circle id="Ellipse 107" cx="199" cy="427" r="3.5" transform="rotate(90 199 427)" fill="var(--fill-0, #999999)" stroke="var(--stroke-0, #999999)"/>
<circle id="Ellipse 115" cx="199" cy="492" r="3.5" transform="rotate(90 199 492)" fill="var(--fill-0, #999999)" stroke="var(--stroke-0, #999999)"/>
<circle id="Ellipse 117" cx="199" cy="557" r="3.5" transform="rotate(90 199 557)" fill="var(--fill-0, #999999)" stroke="var(--stroke-0, #999999)"/>
<circle id="Ellipse 119" cx="199" cy="622" r="3.5" transform="rotate(90 199 622)" fill="var(--fill-0, #999999)" stroke="var(--stroke-0, #999999)"/>
<circle id="Ellipse 121" cx="199" cy="687" r="3.5" transform="rotate(90 199 687)" fill="var(--fill-0, #999999)" stroke="var(--stroke-0, #999999)"/>
<circle id="Ellipse 123" cx="199" cy="752" r="3.5" transform="rotate(90 199 752)" fill="var(--fill-0, #999999)" stroke="var(--stroke-0, #999999)"/>
<circle id="Ellipse 108" cx="199" cy="362" r="3.5" transform="rotate(90 199 362)" fill="var(--fill-0, #999999)" stroke="var(--stroke-0, #999999)"/>
<circle id="Ellipse 111" cx="264" cy="427" r="3.5" transform="rotate(90 264 427)" fill="var(--fill-0, #999999)" stroke="var(--stroke-0, #999999)"/>
<circle id="Ellipse 116" cx="264" cy="492" r="3.5" transform="rotate(90 264 492)" fill="var(--fill-0, #999999)" stroke="var(--stroke-0, #999999)"/>
<circle id="Ellipse 118" cx="264" cy="557" r="3.5" transform="rotate(90 264 557)" fill="var(--fill-0, #999999)" stroke="var(--stroke-0, #999999)"/>
<circle id="Ellipse 120" cx="264" cy="622" r="3.5" transform="rotate(90 264 622)" fill="var(--fill-0, #999999)" stroke="var(--stroke-0, #999999)"/>
<circle id="Ellipse 122" cx="264" cy="687" r="3.5" transform="rotate(90 264 687)" fill="var(--fill-0, #999999)" stroke="var(--stroke-0, #999999)"/>
<circle id="Ellipse 124" cx="264" cy="752" r="3.5" transform="rotate(90 264 752)" fill="var(--fill-0, #999999)" stroke="var(--stroke-0, #999999)"/>
<circle id="Ellipse 125" cx="273" cy="752" r="3.5" transform="rotate(90 273 752)" fill="var(--fill-0, #999999)" stroke="var(--stroke-0, #999999)"/>
<circle id="Ellipse 128" cx="403" cy="752" r="3.5" transform="rotate(90 403 752)" fill="var(--fill-0, #999999)" stroke="var(--stroke-0, #999999)"/>
<circle id="Ellipse 130" cx="598" cy="752" r="3.5" transform="rotate(90 598 752)" fill="var(--fill-0, #999999)" stroke="var(--stroke-0, #999999)"/>
<circle id="Ellipse 126" cx="273" cy="720" r="3.5" transform="rotate(90 273 720)" fill="var(--fill-0, #999999)" stroke="var(--stroke-0, #999999)"/>
<circle id="Ellipse 132" cx="468" cy="720" r="3.5" transform="rotate(90 468 720)" fill="var(--fill-0, #999999)" stroke="var(--stroke-0, #999999)"/>
<circle id="Ellipse 129" cx="403" cy="720" r="3.5" transform="rotate(90 403 720)" fill="var(--fill-0, #999999)" stroke="var(--stroke-0, #999999)"/>
<circle id="Ellipse 133" cx="598" cy="720" r="3.5" transform="rotate(90 598 720)" fill="var(--fill-0, #999999)" stroke="var(--stroke-0, #999999)"/>
<circle id="Ellipse 127" cx="338" cy="720" r="3.5" transform="rotate(90 338 720)" fill="var(--fill-0, #999999)" stroke="var(--stroke-0, #999999)"/>
<circle id="Ellipse 134" cx="533" cy="720" r="3.5" transform="rotate(90 533 720)" fill="var(--fill-0, #999999)" stroke="var(--stroke-0, #999999)"/>
<circle id="Ellipse 112" cx="264" cy="362" r="3.5" transform="rotate(90 264 362)" fill="var(--fill-0, #999999)" stroke="var(--stroke-0, #999999)"/>
<circle id="Ellipse 113" cx="264" cy="297" r="3.5" transform="rotate(90 264 297)" fill="var(--fill-0, #999999)" stroke="var(--stroke-0, #999999)"/>
<circle id="Ellipse 114" cx="264" cy="232" r="3.5" transform="rotate(90 264 232)" fill="var(--fill-0, #999999)" stroke="var(--stroke-0, #999999)"/>
<path id="Vector 30" d="M263.963 361.991L264.019 556.991L264.075 751.991L199.075 752.009L199.019 557.009M199.019 557.009L264.019 556.991M199.019 557.009L198.963 362.009M198.963 362.009L198.926 232.009L263.926 231.991L263.963 361.991M198.963 362.009L263.963 361.991" stroke="var(--stroke-0, #999999)"/>
<path id="Vector 25" d="M574 4H607V134M639 719H607V524M607 524H639M607 524V329M607 329H639M607 329V134M607 134H639.5" stroke="var(--stroke-0, #999999)"/>
</g>
</svg>
