<svg preserveAspectRatio="none" width="100%" height="100%" overflow="visible" style="display: block;" viewBox="0 0 105 593" fill="none" xmlns="http://www.w3.org/2000/svg">
<g id="Group 6">
<rect id="Rectangle 56" x="44" y="8" width="53" height="65" fill="var(--fill-0, #D88E70)"/>
<rect id="Rectangle 57" x="44" y="144" width="53" height="65" fill="var(--fill-0, #D88E70)"/>
<rect id="Rectangle 58" x="44" y="280" width="53" height="65" fill="var(--fill-0, #D88E70)"/>
<rect id="Rectangle 59" x="44" y="76" width="53" height="65" fill="var(--fill-0, #D88E70)"/>
<rect id="Rectangle 60" x="44" y="212" width="53" height="65" fill="var(--fill-0, #D88E70)"/>
<rect id="Rectangle 61" x="44" y="348" width="53" height="65" fill="var(--fill-0, #D88E70)"/>
<rect id="Rectangle 62" x="44" y="416" width="53" height="65" fill="var(--fill-0, #D88E70)"/>
<rect id="Rectangle 63" x="36" y="524" width="65" height="65" fill="var(--fill-0, #D88E70)"/>
<circle id="Ellipse 82" cx="36" cy="4" r="3.5" fill="var(--fill-0, #999999)" stroke="var(--stroke-0, #999999)"/>
<circle id="Ellipse 84" cx="36" cy="69" r="3.5" fill="var(--fill-0, #999999)" stroke="var(--stroke-0, #999999)"/>
<circle id="Ellipse 85" cx="36" cy="134" r="3.5" fill="var(--fill-0, #999999)" stroke="var(--stroke-0, #999999)"/>
<circle id="Ellipse 86" cx="36" cy="199" r="3.5" fill="var(--fill-0, #999999)" stroke="var(--stroke-0, #999999)"/>
<circle id="Ellipse 87" cx="36" cy="264" r="3.5" fill="var(--fill-0, #999999)" stroke="var(--stroke-0, #999999)"/>
<circle id="Ellipse 88" cx="36" cy="329" r="3.5" fill="var(--fill-0, #999999)" stroke="var(--stroke-0, #999999)"/>
<circle id="Ellipse 95" cx="4" cy="329" r="3.5" fill="var(--fill-0, #999999)" stroke="var(--stroke-0, #999999)"/>
<circle id="Ellipse 96" cx="4" cy="199" r="3.5" fill="var(--fill-0, #999999)" stroke="var(--stroke-0, #999999)"/>
<circle id="Ellipse 89" cx="36" cy="394" r="3.5" fill="var(--fill-0, #999999)" stroke="var(--stroke-0, #999999)"/>
<circle id="Ellipse 90" cx="36" cy="459" r="3.5" fill="var(--fill-0, #999999)" stroke="var(--stroke-0, #999999)"/>
<circle id="Ellipse 91" cx="36" cy="524" r="3.5" fill="var(--fill-0, #999999)" stroke="var(--stroke-0, #999999)"/>
<circle id="Ellipse 93" cx="101" cy="524" r="3.5" fill="var(--fill-0, #999999)" stroke="var(--stroke-0, #999999)"/>
<circle id="Ellipse 92" cx="36" cy="589" r="3.5" fill="var(--fill-0, #999999)" stroke="var(--stroke-0, #999999)"/>
<circle id="Ellipse 94" cx="101" cy="589" r="3.5" fill="var(--fill-0, #999999)" stroke="var(--stroke-0, #999999)"/>
<circle id="Ellipse 83" cx="101" cy="4" r="3.5" fill="var(--fill-0, #999999)" stroke="var(--stroke-0, #999999)"/>
<path id="Vector 32" d="M101 4H36V199M36 524V329M36 329H4M36 329V199M36 199H4.5" stroke="var(--stroke-0, #999999)"/>
</g>
</svg>
