<svg width="136" height="27" viewBox="83.9378 0 216.0622 70" fill="none" xmlns="http://www.w3.org/2000/svg">
<rect x="83.9378" y="0" width="216.0622" height="70" fill="#EC5665"/>
<path id="Vector_2" d="M87.8238 62.2222V58.3333H83.9378V62.2222H87.8238Z" fill="white"/>
<path id="Vector_3" d="M107.254 11.6667L129.016 11.6667V7.77778L107.254 7.77778V11.6667Z" fill="white"/>
<path id="Vector_4" d="M103.368 11.6667V33.4444H107.254V11.6667H103.368Z" fill="white"/>
<path id="Vector_5" d="M103.368 37.3333V59.1111H107.254V37.3333H103.368Z" fill="white"/>
<path id="Vector_6" d="M107.254 63H129.016V59.1111H107.254V63Z" fill="white"/>
<path id="Vector_7" d="M107.254 37.3333H129.016V33.4444H107.254V37.3333Z" fill="white"/>
<path id="Vector_8" d="M135.233 11.6667L156.995 11.6667V7.77778L135.233 7.77778V11.6667Z" fill="white"/>
<path id="Vector_9" d="M135.233 63H156.995V59.1111H135.233V63Z" fill="white"/>
<path id="Vector_10" d="M135.233 37.3333H150V33.4444H135.233V37.3333Z" fill="white"/>
<path id="Vector_17" d="M176.425 63H197.409V59.1111H176.425V63Z" fill="white"/>
<path id="Vector_18" d="M201.295 63H222.28V59.1111H201.295V63Z" fill="white"/>
<path id="Vector_19" d="M172.539 7.77778V34.2222H176.425V7.77778H172.539Z" fill="white"/>
<path id="Vector_20" d="M222.28 7.77778V34.2222H226.166V7.77778H222.28Z" fill="white"/>
<path id="Vector_21" d="M172.539 38.1111V59.1111H176.425V38.1111H172.539Z" fill="white"/>
<path id="Vector_22" d="M222.28 38.1111V59.1111H226.166V38.1111H222.28Z" fill="white"/>
<path id="Vector_23" d="M245.596 7.77778L268.912 7.77778L268.912 11.6667L245.596 11.6667L245.596 7.77778Z" fill="white"/>
<path id="Vector_24" d="M272.798 7.77778L296.114 7.77778L296.114 11.6667L272.798 11.6667L272.798 7.77778Z" fill="white"/>
<path id="Vector_25" d="M241.71 63L241.71 38.1111L245.596 38.1111L245.596 63L241.71 63Z" fill="white"/>
<path id="Vector_26" d="M296.114 63L296.114 38.1111L300 38.1111L300 63L296.114 63Z" fill="white"/>
<path id="Vector_27" d="M268.912 63L268.912 38.1111L272.798 38.1111L272.798 63L268.912 63Z" fill="white"/>
<path id="Vector_28" d="M241.71 34.2222L241.71 11.6667L245.596 11.6667L245.596 34.2222L241.71 34.2222Z" fill="white"/>
<path id="Vector_29" d="M296.114 34.2222L296.114 11.6667L300 11.6667L300 34.2222L296.114 34.2222Z" fill="white"/>
<path id="Vector_30" d="M268.912 34.2222L268.912 11.6667L272.798 11.6667L272.798 34.2222L268.912 34.2222Z" fill="white"/>
</svg>
