<svg preserveAspectRatio="none" width="100%" height="100%" overflow="visible" style="display: block;" viewBox="0 0 70 70" fill="none" xmlns="http://www.w3.org/2000/svg">
<g id="&#225;&#132;&#137;&#225;&#133;&#181;&#225;&#134;&#183;&#225;&#132;&#135;&#225;&#133;&#169;&#225;&#134;&#175; 1" clip-path="url(#clip0_0_4)">
<path id="Vector" d="M70 0H0V70H70V0Z" fill="var(--fill-0, #FBEA78)"/>
<path id="Vector_2" d="M33.6 10.5H14V14H33.6V10.5Z" fill="var(--fill-0, #EC5665)"/>
<path id="Vector_3" d="M33.6 56.7003H14V60.2003H33.6V56.7003Z" fill="var(--fill-0, #EC5665)"/>
<path id="Vector_4" d="M33.6 33.6002H14V37.1002H33.6V33.6002Z" fill="var(--fill-0, #EC5665)"/>
<path id="Vector_5" d="M56.7 10.5H37.1V14H56.7V10.5Z" fill="var(--fill-0, #EC5665)"/>
<path id="Vector_6" d="M56.7 56.7003H37.1V60.2003H56.7V56.7003Z" fill="var(--fill-0, #EC5665)"/>
<path id="Vector_7" d="M56.7 33.6002H37.1V37.1002H56.7V33.6002Z" fill="var(--fill-0, #EC5665)"/>
<path id="Vector_8" d="M37.1 33.6V14H33.6V33.6H37.1Z" fill="var(--fill-0, #EC5665)"/>
<path id="Vector_9" d="M60.1999 33.6V14H56.6999V33.6H60.1999Z" fill="var(--fill-0, #EC5665)"/>
<path id="Vector_10" d="M14 33.6L14 14H10.5L10.5 33.6H14Z" fill="var(--fill-0, #EC5665)"/>
<path id="Vector_11" d="M37.1 56.7002V37.1002H33.6V56.7002H37.1Z" fill="var(--fill-0, #EC5665)"/>
<path id="Vector_12" d="M60.1999 56.7002V37.1002H56.6999V56.7002H60.1999Z" fill="var(--fill-0, #EC5665)"/>
<path id="Vector_13" d="M14 56.7002L14 37.1002H10.5L10.5 56.7002H14Z" fill="var(--fill-0, #EC5665)"/>
</g>
<defs>
<clipPath id="clip0_0_4">
<rect width="70" height="70" fill="white"/>
</clipPath>
</defs>
</svg>
