<svg width="300" height="70" viewBox="0 0 300 70" fill="none" xmlns="http://www.w3.org/2000/svg">
<rect width="300" height="70" fill="#EC5665"/>
<path d="M87.8238 62.2222V58.3333H83.9378V62.2222H87.8238Z" fill="white"/>
<path d="M107.254 11.6667L129.016 11.6667V7.77778L107.254 7.77778V11.6667Z" fill="white"/>
<path d="M103.368 11.6667V33.4444H107.254V11.6667H103.368Z" fill="white"/>
<path d="M103.368 37.3333V59.1111H107.254V37.3333H103.368Z" fill="white"/>
<path d="M107.254 63H129.016V59.1111H107.254V63Z" fill="white"/>
<path d="M107.254 37.3333H129.016V33.4444H107.254V37.3333Z" fill="white"/>
<path d="M135.233 11.6667L156.995 11.6667V7.77778L135.233 7.77778V11.6667Z" fill="white"/>
<path d="M135.233 63H156.995V59.1111H135.233V63Z" fill="white"/>
<path d="M135.233 37.3333H150V33.4444H135.233V37.3333Z" fill="white"/>
<path d="M33.4125 12.4444V33.4444H37.2985V12.4444H33.4125Z" fill="white"/>
<path d="M13.9896 12.4444L33.4197 12.4444V8.55556L13.9896 8.55556V12.4444Z" fill="white"/>
<path d="M13.9896 62.2222H33.4197V58.3333H13.9896V62.2222Z" fill="white"/>
<path d="M37.3057 12.4444L56.7358 12.4444V8.55556L37.3057 8.55556V12.4444Z" fill="white"/>
<path d="M37.3057 62.2222H56.7358V58.3333H37.3057V62.2222Z" fill="white"/>
<path d="M33.4197 37.3333V58.3333H37.3057V37.3333H33.4197Z" fill="white"/>
<path d="M176.425 63H197.409V59.1111H176.425V63Z" fill="white"/>
<path d="M201.295 63H222.28V59.1111H201.295V63Z" fill="white"/>
<path d="M172.539 7.77778V34.2222H176.425V7.77778H172.539Z" fill="white"/>
<path d="M222.28 7.77778V34.2222H226.166V7.77778H222.28Z" fill="white"/>
<path d="M172.539 38.1111V59.1111H176.425V38.1111H172.539Z" fill="white"/>
<path d="M222.28 38.1111V59.1111H226.166V38.1111H222.28Z" fill="white"/>
<path d="M245.596 7.77778L268.912 7.77778L268.912 11.6667L245.596 11.6667L245.596 7.77778Z" fill="white"/>
<path d="M272.798 7.77778L296.114 7.77778L296.114 11.6667L272.798 11.6667L272.798 7.77778Z" fill="white"/>
<path d="M241.71 63L241.71 38.1111L245.596 38.1111L245.596 63L241.71 63Z" fill="white"/>
<path d="M296.114 63L296.114 38.1111L300 38.1111L300 63L296.114 63Z" fill="white"/>
<path d="M268.912 63L268.912 38.1111L272.798 38.1111L272.798 63L268.912 63Z" fill="white"/>
<path d="M241.71 34.2222L241.71 11.6667L245.596 11.6667L245.596 34.2222L241.71 34.2222Z" fill="white"/>
<path d="M296.114 34.2222L296.114 11.6667L300 11.6667L300 34.2222L296.114 34.2222Z" fill="white"/>
<path d="M268.912 34.2222L268.912 11.6667L272.798 11.6667L272.798 34.2222L268.912 34.2222Z" fill="white"/>
</svg>
