<svg width="70" height="70" viewBox="0 0 70 70" fill="none" xmlns="http://www.w3.org/2000/svg">
<g clip-path="url(#clip0_21_1425)">
<path d="M70 0H0V70H70V0Z" fill="#FBEA78"/>
<path d="M33.6 10.5H14V14H33.6V10.5Z" fill="#EC5665"/>
<path d="M33.6 56.7003H14V60.2003H33.6V56.7003Z" fill="#EC5665"/>
<path d="M33.6 33.6002H14V37.1002H33.6V33.6002Z" fill="#EC5665"/>
<path d="M56.7 10.5H37.1V14H56.7V10.5Z" fill="#EC5665"/>
<path d="M56.7 56.7003H37.1V60.2003H56.7V56.7003Z" fill="#EC5665"/>
<path d="M56.7 33.6002H37.1V37.1002H56.7V33.6002Z" fill="#EC5665"/>
<path d="M37.1 33.6V14H33.6V33.6H37.1Z" fill="#EC5665"/>
<path d="M60.1999 33.6V14H56.6999V33.6H60.1999Z" fill="#EC5665"/>
<path d="M14 33.6L14 14H10.5L10.5 33.6H14Z" fill="#EC5665"/>
<path d="M37.1 56.7002V37.1002H33.6V56.7002H37.1Z" fill="#EC5665"/>
<path d="M60.1999 56.7002V37.1002H56.6999V56.7002H60.1999Z" fill="#EC5665"/>
<path d="M14 56.7002L14 37.1002H10.5L10.5 56.7002H14Z" fill="#EC5665"/>
</g>
<defs>
<clipPath id="clip0_21_1425">
<rect width="70" height="70" fill="white"/>
</clipPath>
</defs>
</svg>
