<svg width="55" height="50" viewBox="0 0 55 50" fill="none" xmlns="http://www.w3.org/2000/svg">
<rect width="55" height="50" rx="25" fill="#4E3E85"/>
<path d="M28.3106 24.64C28.3106 27.18 27.3306 29.36 25.6906 30.86L27.9306 33.7L26.2906 34.94L23.9906 32.04C22.7906 32.68 21.3906 33.02 19.8706 33.02C15.0106 33.02 11.4106 29.48 11.4106 24.64C11.4106 19.8 14.9906 16.26 19.8506 16.26C24.7106 16.26 28.3106 19.8 28.3106 24.64ZM19.8706 31.1C20.9306 31.1 21.8906 30.88 22.7506 30.46L19.8306 26.78L21.4706 25.52L24.4306 29.26C25.5506 28.12 26.2106 26.5 26.2106 24.64C26.2106 20.86 23.5106 18.18 19.8506 18.18C16.1906 18.18 13.5106 20.86 13.5106 24.64C13.5106 28.4 16.2106 31.1 19.8706 31.1ZM44.0955 32.66H41.6155L37.9755 26.96C37.6755 26.98 37.3755 27 37.0755 27H33.1755V32.66H31.0755V16.64H37.0755C41.1155 16.64 43.4955 18.66 43.4955 21.82C43.4955 24.08 42.2755 25.76 40.0755 26.54L44.0955 32.66ZM36.9155 25.12C39.6955 25.12 41.3955 23.98 41.3955 21.82C41.3955 19.66 39.6955 18.52 36.9155 18.52H33.1755V25.12H36.9155Z" fill="white"/>
</svg>
