<svg preserveAspectRatio="none" width="100%" height="100%" overflow="visible" style="display: block;" viewBox="0 0 43 43" fill="none" xmlns="http://www.w3.org/2000/svg">
<g id="material-symbols-light:pinch-outline-rounded">
<rect width="43" height="43" rx="21.5" fill="var(--fill-0, #EC5665)"/>
<path id="Vector" d="M24.3453 34.9831C23.8814 34.9831 23.445 34.897 23.0363 34.725C22.6276 34.5529 22.2538 34.2981 21.9151 33.9604L15.7344 27.8009C15.5476 27.6307 15.4615 27.42 15.4762 27.1688C15.491 26.9176 15.5913 26.706 15.7773 26.534C15.9862 26.3426 16.2233 26.2193 16.4884 26.1641C16.7526 26.1089 17.02 26.1144 17.2907 26.1807L21.1363 27.1288V15.66C21.1363 15.465 21.2026 15.3012 21.3351 15.1687C21.4677 15.0362 21.6315 14.97 21.8267 14.97C22.0219 14.97 22.1857 15.0362 22.3183 15.1687C22.4508 15.3012 22.5171 15.465 22.5171 15.66V27.5249C22.5171 27.8957 22.3685 28.1929 22.0711 28.4165C21.7728 28.6391 21.4497 28.7017 21.1018 28.6042L17.495 27.6243L22.901 33.0026C23.0869 33.1884 23.307 33.3347 23.561 33.4415C23.8151 33.5482 24.077 33.6015 24.3467 33.6015H29.4213C30.3925 33.6015 31.2109 33.2694 31.8764 32.6051C32.5411 31.9408 32.8734 31.1229 32.8734 30.1513V24.6308C32.8734 24.4357 32.9397 24.272 33.0722 24.1395C33.2048 24.007 33.3687 23.9407 33.5638 23.9407C33.759 23.9407 33.9228 24.007 34.0554 24.1395C34.188 24.272 34.2542 24.4357 34.2542 24.6308V30.1513C34.2542 31.4927 33.7843 32.6332 32.8444 33.5726C31.9036 34.512 30.7639 34.9817 29.4254 34.9817L24.3453 34.9831ZM19.1161 10.1009L10.1034 19.1117H13.4602C13.637 19.1117 13.7829 19.1692 13.8979 19.2842C14.0139 19.3992 14.0719 19.5451 14.0719 19.7217C14.0719 19.8975 14.0139 20.0433 13.8979 20.1592C13.7829 20.2751 13.637 20.3331 13.4602 20.3331H9.13267C8.81599 20.3331 8.55087 20.2264 8.3373 20.0129C8.12373 19.7995 8.01695 19.5345 8.01695 19.218V14.8913C8.01695 14.7147 8.07448 14.5688 8.18955 14.4538C8.30462 14.3379 8.45007 14.2799 8.6259 14.2799C8.80172 14.2799 8.94809 14.3374 9.065 14.4524C9.18192 14.5674 9.23991 14.7133 9.23899 14.8899V18.245L18.2503 9.23835H14.8949C14.7182 9.23835 14.5722 9.18039 14.4572 9.06446C14.3412 8.94945 14.2832 8.80408 14.2832 8.62834C14.2832 8.45261 14.3412 8.30677 14.4572 8.19084C14.5732 8.07491 14.7191 8.01695 14.8949 8.01695H19.2224C19.5391 8.01695 19.8042 8.12368 20.0178 8.33714C20.2314 8.55059 20.3382 8.81558 20.3382 9.13208V13.4574C20.3382 13.634 20.2806 13.7799 20.1656 13.8949C20.0505 14.0108 19.905 14.0688 19.7292 14.0688C19.5534 14.0688 19.407 14.0108 19.2901 13.8949C19.1732 13.7789 19.1152 13.6331 19.1161 13.4574V10.1009ZM26.2219 19.9977C26.3535 20.1302 26.4194 20.294 26.4194 20.4891V25.3195C26.4194 25.5154 26.3531 25.6792 26.2205 25.8108C26.088 25.9424 25.9236 26.0086 25.7276 26.0095C25.5315 26.0104 25.3676 25.9442 25.236 25.8108C25.1043 25.6774 25.0385 25.5136 25.0385 25.3195V20.4891C25.0385 20.294 25.1048 20.1302 25.2374 19.9977C25.3699 19.8653 25.5338 19.799 25.7289 19.799C25.9241 19.799 26.0884 19.8653 26.2219 19.9977ZM30.1518 21.3779C30.2834 21.5103 30.3492 21.6741 30.3492 21.8692V25.3195C30.3492 25.5154 30.2829 25.6792 30.1504 25.8108C30.0178 25.9433 29.8535 26.0095 29.6574 26.0095C29.4614 26.0095 29.2975 25.9433 29.1659 25.8108C29.0342 25.6783 28.9684 25.5145 28.9684 25.3195V21.8692C28.9684 21.6741 29.0347 21.5103 29.1672 21.3779C29.2998 21.2454 29.4637 21.1791 29.6588 21.1791C29.854 21.1791 30.0192 21.2454 30.1518 21.3779Z" fill="var(--fill-0, white)"/>
</g>
</svg>
