<svg preserveAspectRatio="none" width="100%" height="100%" overflow="visible" style="display: block;" viewBox="0 0 38.4003 37.1861" fill="none" xmlns="http://www.w3.org/2000/svg">
<path id="Vector 77" d="M0.943242 0.257248L0.514496 0L0 0.857493L0.428746 1.11474L0.685994 0.685994L0.943242 0.257248ZM35.44 37.1213C35.6804 37.2572 35.9854 37.1724 36.1213 36.932L38.3355 33.0145C38.4714 32.7741 38.3867 32.4691 38.1463 32.3332C37.9059 32.1973 37.6009 32.282 37.465 32.5224L35.4967 36.0047L32.0145 34.0365C31.7741 33.9006 31.4691 33.9853 31.3332 34.2257C31.1973 34.4661 31.282 34.7711 31.5224 34.907L35.44 37.1213ZM1.25995 1.62014L1.6857 1.88231L2.21004 1.03081L1.78429 0.768636L1.52212 1.19439L1.25995 1.62014ZM3.45298 1.81963L3.03246 1.54914L2.49149 2.39018L2.91201 2.66067L3.18249 2.24015L3.45298 1.81963ZM4.55541 3.73806L4.97126 4.01568L5.5265 3.18399L5.11066 2.90637L4.83304 3.32221L4.55541 3.73806ZM6.74032 4.01294L6.32883 3.7289L5.76074 4.55187L6.17223 4.83591L6.45627 4.42442L6.74032 4.01294ZM7.77634 5.9609L8.18359 6.25099L8.76377 5.4365L8.35652 5.14641L8.06643 5.55365L7.77634 5.9609ZM9.95865 6.30519L9.55563 6.00926L8.96376 6.81529L9.36678 7.11123L9.66272 6.70821L9.95865 6.30519ZM10.9382 8.28256L11.337 8.58424L11.9403 7.78678L11.5416 7.4851L11.2399 7.88383L10.9382 8.28256ZM13.1058 8.68636L12.7114 8.37894L12.0966 9.1676L12.4909 9.47502L12.7983 9.08069L13.1058 8.68636ZM14.027 10.6908L14.4167 11.0041L15.0432 10.2246L14.6534 9.91136L14.3402 10.3011L14.027 10.6908ZM16.1833 11.1601L15.7984 10.8409L15.1601 11.6107L15.545 11.9299L15.8641 11.545L16.1833 11.1601ZM17.0432 13.1925L17.423 13.5177L18.0735 12.7582L17.6938 12.433L17.3685 12.8127L17.0432 13.1925ZM19.1835 13.7307L18.8093 13.3991L18.1461 14.1475L18.5203 14.4791L18.8519 14.1049L19.1835 13.7307ZM19.9743 15.7906L20.3425 16.1289L21.019 15.3924L20.6508 15.0542L20.3125 15.4224L19.9743 15.7906ZM22.0935 16.4047L21.7318 16.0595L21.0414 16.7829L21.4031 17.1281L21.7483 16.7664L22.0935 16.4047ZM22.8048 18.4932L23.1594 18.8457L23.8645 18.1366L23.5099 17.7841L23.1574 18.1386L22.8048 18.4932ZM24.8973 19.1942L24.5507 18.8339L23.8299 19.5271L24.1765 19.8874L24.5369 19.5408L24.8973 19.1942ZM25.5148 21.3127L25.8525 21.6814L26.5899 21.0059L26.2522 20.6372L25.8835 20.9749L25.5148 21.3127ZM27.5706 22.1152L27.2429 21.7376L26.4876 22.393L26.8153 22.7706L27.193 22.4429L27.5706 22.1152ZM28.073 24.2634L28.3893 24.6507L29.1637 24.018L28.8474 23.6308L28.4602 23.9471L28.073 24.2634ZM30.0765 25.1868L29.7733 24.7892L28.9782 25.3956L29.2814 25.7932L29.6789 25.49L30.0765 25.1868ZM30.4328 27.3621L30.7208 27.7708L31.5382 27.1948L31.2502 26.7861L30.8415 27.0741L30.4328 27.3621ZM32.3614 28.4356L32.0912 28.0148L31.2497 28.5551L31.5199 28.9759L31.9406 28.7057L32.3614 28.4356ZM32.5302 30.6365L32.7792 31.0701L33.6464 30.5723L33.3975 30.1386L32.9639 30.3876L32.5302 30.6365ZM34.3419 31.8963L34.1184 31.449L33.2239 31.8961L33.4474 32.3433L33.8946 32.1198L34.3419 31.8963ZM34.2527 34.0964L34.4456 34.5577L35.3682 34.172L35.1754 33.7107L34.714 33.9036L34.2527 34.0964ZM35.8776 35.593L35.7222 35.1177L34.7717 35.4285L34.9271 35.9037L35.4023 35.7484L35.8776 35.593ZM0.685994 0.685994L0.428746 1.11474C0.697868 1.27621 0.975121 1.44475 1.25995 1.62014L1.52212 1.19439L1.78429 0.768636C1.49631 0.591301 1.21577 0.420766 0.943242 0.257248L0.685994 0.685994ZM3.18249 2.24015L2.91201 2.66067C3.44183 3.00146 3.99055 3.36094 4.55541 3.73806L4.83304 3.32221L5.11066 2.90637C4.54115 2.52616 3.98768 2.16356 3.45298 1.81963L3.18249 2.24015ZM6.45627 4.42442L6.17223 4.83591C6.69696 5.19813 7.23231 5.57337 7.77634 5.9609L8.06643 5.55365L8.35652 5.14641C7.80846 4.75601 7.26908 4.37794 6.74032 4.01294L6.45627 4.42442ZM9.66272 6.70821L9.36678 7.11123C9.88523 7.49193 10.4096 7.88257 10.9382 8.28256L11.2399 7.88383L11.5416 7.4851C11.0091 7.08217 10.4809 6.68867 9.95865 6.30519L9.66272 6.70821ZM12.7983 9.08069L12.4909 9.47502C13.0008 9.87252 13.5133 10.278 14.027 10.6908L14.3402 10.3011L14.6534 9.91136C14.1358 9.49533 13.6194 9.08682 13.1058 8.68636L12.7983 9.08069ZM15.8641 11.545L15.545 11.9299C16.0448 12.3444 16.5447 12.7654 17.0432 13.1925L17.3685 12.8127L17.6938 12.433C17.191 12.0023 16.6871 11.5779 16.1833 11.1601L15.8641 11.545ZM18.8519 14.1049L18.5203 14.4791C19.0077 14.911 19.4928 15.3484 19.9743 15.7906L20.3125 15.4224L20.6508 15.0542C20.1647 14.6077 19.6752 14.1664 19.1835 13.7307L18.8519 14.1049ZM21.7483 16.7664L21.4031 17.1281C21.8754 17.5788 22.343 18.034 22.8048 18.4932L23.1574 18.1386L23.5099 17.7841C23.0431 17.3199 22.5706 16.8599 22.0935 16.4047L21.7483 16.7664ZM24.5369 19.5408L24.1765 19.8874C24.6301 20.3591 25.0766 20.8343 25.5148 21.3127L25.8835 20.9749L26.2522 20.6372C25.8083 20.1526 25.3563 19.6714 24.8973 19.1942L24.5369 19.5408ZM27.193 22.4429L26.8153 22.7706C27.2449 23.2656 27.6645 23.7634 28.073 24.2634L28.4602 23.9471L28.8474 23.6308C28.4324 23.1227 28.0064 22.6174 27.5706 22.1152L27.193 22.4429ZM29.6789 25.49L29.2814 25.7932C29.679 26.3145 30.0632 26.8377 30.4328 27.3621L30.8415 27.0741L31.2502 26.7861C30.8731 26.2509 30.4813 25.7176 30.0765 25.1868L29.6789 25.49ZM31.9406 28.7057L31.5199 28.9759C31.875 29.529 32.2123 30.0827 32.5302 30.6365L32.9639 30.3876L33.3975 30.1386C33.0709 29.5697 32.7249 29.0018 32.3614 28.4356L31.9406 28.7057ZM33.8946 32.1198L33.4474 32.3433C33.74 32.9289 34.009 33.5135 34.2527 34.0964L34.714 33.9036L35.1754 33.7107C34.9224 33.1057 34.6439 32.5006 34.3419 31.8963L33.8946 32.1198ZM35.4023 35.7484L34.9271 35.9037C35.0272 36.2099 35.1196 36.5153 35.2042 36.8198L35.686 36.686L36.1678 36.5522C36.079 36.2327 35.9822 35.9129 35.8776 35.593L35.4023 35.7484Z" fill="var(--stroke-0, white)"/>
</svg>
