<svg width="43" height="43" viewBox="0 0 43 43" fill="none" xmlns="http://www.w3.org/2000/svg">
<rect width="43" height="43" rx="21.5" fill="#EC5665"/>
<path d="M24.3455 34.983C23.8815 34.983 23.4452 34.897 23.0365 34.725C22.6277 34.5529 22.254 34.298 21.9152 33.9604L15.7346 27.8009C15.5477 27.6307 15.4616 27.42 15.4764 27.1688C15.4911 26.9176 15.5914 26.706 15.7774 26.534C15.9864 26.3426 16.2234 26.2193 16.4885 26.1641C16.7527 26.1089 17.0201 26.1144 17.2908 26.1807L21.1364 27.1288V15.66C21.1364 15.465 21.2027 15.3012 21.3353 15.1687C21.4678 15.0362 21.6317 14.97 21.8268 14.97C22.022 14.97 22.1859 15.0362 22.3184 15.1687C22.451 15.3012 22.5173 15.465 22.5173 15.66V27.5249C22.5173 27.8957 22.3686 28.1929 22.0713 28.4164C21.773 28.6391 21.4499 28.7017 21.1019 28.6041L17.4952 27.6243L22.9011 33.0026C23.0871 33.1884 23.3071 33.3347 23.5612 33.4414C23.8152 33.5482 24.0771 33.6015 24.3469 33.6015H29.4214C30.3926 33.6015 31.211 33.2694 31.8766 32.6051C32.5412 31.9408 32.8735 31.1228 32.8735 30.1512V24.6308C32.8735 24.4357 32.9398 24.272 33.0724 24.1395C33.2049 24.007 33.3688 23.9407 33.564 23.9407C33.7591 23.9407 33.923 24.007 34.0555 24.1395C34.1881 24.272 34.2544 24.4357 34.2544 24.6308V30.1512C34.2544 31.4927 33.7844 32.6332 32.8445 33.5726C31.9037 34.512 30.7641 34.9817 29.4256 34.9817L24.3455 34.983ZM19.1163 10.1009L10.1035 19.1117H13.4604C13.6371 19.1117 13.783 19.1692 13.8981 19.2842C14.0141 19.3992 14.0721 19.5451 14.0721 19.7217C14.0721 19.8974 14.0141 20.0433 13.8981 20.1592C13.783 20.2751 13.6371 20.3331 13.4604 20.3331H9.13281C8.81613 20.3331 8.55101 20.2264 8.33744 20.0129C8.12387 19.7995 8.01709 19.5345 8.01709 19.218V14.8913C8.01709 14.7146 8.07462 14.5688 8.18969 14.4538C8.30476 14.3379 8.45021 14.2799 8.62604 14.2799C8.80187 14.2799 8.94823 14.3374 9.06515 14.4524C9.18206 14.5674 9.24005 14.7133 9.23913 14.8899V18.245L18.2505 9.23834H14.895C14.7183 9.23834 14.5724 9.18038 14.4573 9.06445C14.3413 8.94944 14.2833 8.80406 14.2833 8.62833C14.2833 8.45259 14.3413 8.30676 14.4573 8.19083C14.5733 8.0749 14.7192 8.01694 14.895 8.01694H19.2226C19.5393 8.01694 19.8044 8.12367 20.0179 8.33712C20.2315 8.55058 20.3383 8.81556 20.3383 9.13207V13.4574C20.3383 13.634 20.2808 13.7798 20.1657 13.8949C20.0506 14.0108 19.9052 14.0687 19.7294 14.0687C19.5535 14.0687 19.4072 14.0108 19.2902 13.8949C19.1733 13.7789 19.1153 13.6331 19.1163 13.4574V10.1009ZM26.222 19.9977C26.3537 20.1302 26.4195 20.294 26.4195 20.4891V25.3195C26.4195 25.5154 26.3532 25.6792 26.2207 25.8108C26.0881 25.9424 25.9238 26.0086 25.7277 26.0095C25.5316 26.0104 25.3678 25.9442 25.2361 25.8108C25.1045 25.6774 25.0387 25.5136 25.0387 25.3195V20.4891C25.0387 20.294 25.1049 20.1302 25.2375 19.9977C25.3701 19.8652 25.5339 19.799 25.7291 19.799C25.9242 19.799 26.0886 19.8652 26.222 19.9977ZM30.1519 21.3778C30.2835 21.5103 30.3494 21.6741 30.3494 21.8692V25.3195C30.3494 25.5154 30.2831 25.6792 30.1505 25.8108C30.018 25.9433 29.8536 26.0095 29.6576 26.0095C29.4615 26.0095 29.2976 25.9433 29.166 25.8108C29.0344 25.6783 28.9685 25.5145 28.9685 25.3195V21.8692C28.9685 21.6741 29.0348 21.5103 29.1674 21.3778C29.2999 21.2454 29.4638 21.1791 29.659 21.1791C29.8541 21.1791 30.0193 21.2454 30.1519 21.3778Z" fill="white"/>
</svg>
