<svg preserveAspectRatio="none" width="100%" height="100%" overflow="visible" style="display: block;" viewBox="0 0 289.5 408" fill="none" xmlns="http://www.w3.org/2000/svg">
<g id="Group 8">
<path id="Vector 20" d="M203 192L203 14" stroke="var(--stroke-0, #999999)" stroke-width="4" stroke-dasharray="18 18"/>
<rect id="Rectangle 64" x="250" y="21" width="39" height="80" stroke="var(--stroke-0, #999999)"/>
<rect id="Rectangle 65" x="250" y="101" width="39" height="80" stroke="var(--stroke-0, #999999)"/>
<circle id="Ellipse 97" cx="4" cy="4" r="3.5" fill="var(--fill-0, #999999)" stroke="var(--stroke-0, #999999)"/>
<circle id="Ellipse 99" cx="69" cy="4" r="3.5" fill="var(--fill-0, #999999)" stroke="var(--stroke-0, #999999)"/>
<circle id="Ellipse 100" cx="134" cy="4" r="3.5" fill="var(--fill-0, #999999)" stroke="var(--stroke-0, #999999)"/>
<circle id="Ellipse 101" cx="199" cy="4" r="3.5" fill="var(--fill-0, #999999)" stroke="var(--stroke-0, #999999)"/>
<circle id="Ellipse 102" cx="199" cy="69" r="3.5" fill="var(--fill-0, #999999)" stroke="var(--stroke-0, #999999)"/>
<circle id="Ellipse 103" cx="199" cy="134" r="3.5" fill="var(--fill-0, #999999)" stroke="var(--stroke-0, #999999)"/>
<circle id="Ellipse 104" cx="199" cy="199" r="3.5" fill="var(--fill-0, #999999)" stroke="var(--stroke-0, #999999)"/>
<circle id="Ellipse 106" cx="199" cy="209" r="3.5" fill="var(--fill-0, #999999)" stroke="var(--stroke-0, #999999)"/>
<circle id="Ellipse 108" cx="199" cy="274" r="3.5" fill="var(--fill-0, #999999)" stroke="var(--stroke-0, #999999)"/>
<circle id="Ellipse 109" cx="199" cy="339" r="3.5" fill="var(--fill-0, #999999)" stroke="var(--stroke-0, #999999)"/>
<circle id="Ellipse 110" cx="199" cy="404" r="3.5" fill="var(--fill-0, #999999)" stroke="var(--stroke-0, #999999)"/>
<circle id="Ellipse 111" cx="134" cy="404" r="3.5" fill="var(--fill-0, #999999)" stroke="var(--stroke-0, #999999)"/>
<circle id="Ellipse 105" cx="134" cy="199" r="3.5" fill="var(--fill-0, #999999)" stroke="var(--stroke-0, #999999)"/>
<circle id="Ellipse 107" cx="134" cy="209" r="3.5" fill="var(--fill-0, #999999)" stroke="var(--stroke-0, #999999)"/>
<circle id="Ellipse 98" cx="4" cy="69" r="3.5" fill="var(--fill-0, #999999)" stroke="var(--stroke-0, #999999)"/>
<path id="Vector 33" d="M4 69V4H199V199H134.5" stroke="var(--stroke-0, #999999)"/>
<path id="Vector 34" d="M134 209H199V404H134" stroke="var(--stroke-0, #999999)"/>
</g>
</svg>
