<svg preserveAspectRatio="none" width="100%" height="100%" overflow="visible" style="display: block;" viewBox="0 0 515 837" fill="none" xmlns="http://www.w3.org/2000/svg">
<g id="Group 1">
<path id="Vector 9" d="M511 832V573M511 573H446V443.5M511 573V443.5M446 443.5V312H511V443.5M446 443.5H511" stroke="var(--stroke-0, #999999)"/>
<circle id="Ellipse 5" cx="511" cy="832" r="3.5" fill="var(--fill-0, #999999)" stroke="var(--stroke-0, #999999)"/>
<circle id="Ellipse 7" cx="511" cy="767" r="3.5" fill="var(--fill-0, #999999)" stroke="var(--stroke-0, #999999)"/>
<circle id="Ellipse 8" cx="511" cy="704" r="3.5" fill="var(--fill-0, #999999)" stroke="var(--stroke-0, #999999)"/>
<circle id="Ellipse 9" cx="511" cy="637" r="3.5" fill="var(--fill-0, #999999)" stroke="var(--stroke-0, #999999)"/>
<circle id="Ellipse 10" cx="511" cy="573" r="3.5" fill="var(--fill-0, #999999)" stroke="var(--stroke-0, #999999)"/>
<circle id="Ellipse 12" cx="511" cy="509" r="3.5" fill="var(--fill-0, #999999)" stroke="var(--stroke-0, #999999)"/>
<circle id="Ellipse 14" cx="511" cy="441" r="3.5" fill="var(--fill-0, #999999)" stroke="var(--stroke-0, #999999)"/>
<circle id="Ellipse 16" cx="511" cy="379" r="3.5" fill="var(--fill-0, #999999)" stroke="var(--stroke-0, #999999)"/>
<circle id="Ellipse 18" cx="511" cy="313" r="3.5" fill="var(--fill-0, #999999)" stroke="var(--stroke-0, #999999)"/>
<circle id="Ellipse 11" cx="446" cy="573" r="3.5" fill="var(--fill-0, #999999)" stroke="var(--stroke-0, #999999)"/>
<circle id="Ellipse 13" cx="446" cy="509" r="3.5" fill="var(--fill-0, #999999)" stroke="var(--stroke-0, #999999)"/>
<circle id="Ellipse 15" cx="446" cy="441" r="3.5" fill="var(--fill-0, #999999)" stroke="var(--stroke-0, #999999)"/>
<circle id="Ellipse 17" cx="446" cy="379" r="3.5" fill="var(--fill-0, #999999)" stroke="var(--stroke-0, #999999)"/>
<circle id="Ellipse 19" cx="446" cy="313" r="3.5" fill="var(--fill-0, #999999)" stroke="var(--stroke-0, #999999)"/>
<path id="Vector 11" d="M222 313V443V573V703V767.5" stroke="var(--stroke-0, #999999)"/>
<path id="Vector 12" d="M327 69V36.7481H262.4H197.8M4 4V36.7481H68.6H197.8M197.8 36.7481V4" stroke="var(--stroke-0, #999999)"/>
<circle id="Ellipse 54" cx="4" cy="37" r="3.5" fill="var(--fill-0, #999999)" stroke="var(--stroke-0, #999999)"/>
<circle id="Ellipse 66" cx="4" cy="5" r="3.5" fill="var(--fill-0, #999999)" stroke="var(--stroke-0, #999999)"/>
<circle id="Ellipse 67" cx="198" cy="4" r="3.5" fill="var(--fill-0, #999999)" stroke="var(--stroke-0, #999999)"/>
<circle id="Ellipse 56" cx="132" cy="37" r="3.5" fill="var(--fill-0, #999999)" stroke="var(--stroke-0, #999999)"/>
<circle id="Ellipse 58" cx="262" cy="37" r="3.5" fill="var(--fill-0, #999999)" stroke="var(--stroke-0, #999999)"/>
<circle id="Ellipse 55" cx="69" cy="37" r="3.5" fill="var(--fill-0, #999999)" stroke="var(--stroke-0, #999999)"/>
<circle id="Ellipse 57" cx="198" cy="37" r="3.5" fill="var(--fill-0, #999999)" stroke="var(--stroke-0, #999999)"/>
<circle id="Ellipse 59" cx="327" cy="37" r="3.5" fill="var(--fill-0, #999999)" stroke="var(--stroke-0, #999999)"/>
<circle id="Ellipse 65" cx="327" cy="69" r="3.5" fill="var(--fill-0, #999999)" stroke="var(--stroke-0, #999999)"/>
<circle id="Ellipse 43" cx="222" cy="313" r="3.5" fill="var(--fill-0, #999999)" stroke="var(--stroke-0, #999999)"/>
<circle id="Ellipse 45" cx="222" cy="378" r="3.5" fill="var(--fill-0, #999999)" stroke="var(--stroke-0, #999999)"/>
<circle id="Ellipse 50" cx="222" cy="508" r="3.5" fill="var(--fill-0, #999999)" stroke="var(--stroke-0, #999999)"/>
<circle id="Ellipse 52" cx="222" cy="638" r="3.5" fill="var(--fill-0, #999999)" stroke="var(--stroke-0, #999999)"/>
<circle id="Ellipse 47" cx="222" cy="443" r="3.5" fill="var(--fill-0, #999999)" stroke="var(--stroke-0, #999999)"/>
<circle id="Ellipse 51" cx="222" cy="573" r="3.5" fill="var(--fill-0, #999999)" stroke="var(--stroke-0, #999999)"/>
<circle id="Ellipse 53" cx="222" cy="703" r="3.5" fill="var(--fill-0, #999999)" stroke="var(--stroke-0, #999999)"/>
<circle id="Ellipse 61" cx="222" cy="768" r="3.5" fill="var(--fill-0, #999999)" stroke="var(--stroke-0, #999999)"/>
<circle id="Ellipse 63" cx="222" cy="833" r="3.5" fill="var(--fill-0, #999999)" stroke="var(--stroke-0, #999999)"/>
<circle id="Ellipse 62" cx="287" cy="768" r="3.5" fill="var(--fill-0, #999999)" stroke="var(--stroke-0, #999999)"/>
<circle id="Ellipse 64" cx="287" cy="833" r="3.5" fill="var(--fill-0, #999999)" stroke="var(--stroke-0, #999999)"/>
</g>
</svg>
