<svg preserveAspectRatio="none" width="100%" height="100%" overflow="visible" style="display: block;" viewBox="0 0 486 901" fill="none" xmlns="http://www.w3.org/2000/svg">
<g id="Group 2">
<path id="Vector 11" d="M482 702V572M482 572H417V442M482 572V442M482 442V312H417V442M482 442H417" stroke="var(--stroke-0, #999999)"/>
<path id="Vector 9" d="M194 897.5V822M194 367V498.5V628V822M194 822H259" stroke="var(--stroke-0, #999999)"/>
<rect id="Rectangle 57" x="200" y="433" width="53" height="65" fill="var(--fill-0, #F399BE)"/>
<rect id="Rectangle 58" x="200" y="569" width="53" height="65" fill="var(--fill-0, #F399BE)"/>
<rect id="Rectangle 59" x="200" y="501" width="53" height="65" fill="var(--fill-0, #F399BE)"/>
<rect id="Rectangle 60" x="200" y="637" width="53" height="65" fill="var(--fill-0, #F399BE)"/>
<rect id="Rectangle 56" x="194" y="832" width="65" height="65" fill="var(--fill-0, #F399BE)"/>
<rect id="Rectangle 61" x="383" y="442" width="26" height="26" fill="var(--fill-0, #F399BE)"/>
<rect id="Rectangle 64" x="448" y="622" width="26" height="26" fill="var(--fill-0, #F399BE)"/>
<rect id="Rectangle 67" x="383" y="316" width="26" height="26" fill="var(--fill-0, #F399BE)"/>
<rect id="Rectangle 70" x="138" y="47" width="26" height="26" transform="rotate(90 138 47)" fill="var(--fill-0, #F399BE)"/>
<rect id="Rectangle 73" x="265" y="47" width="26" height="26" transform="rotate(90 265 47)" fill="var(--fill-0, #F399BE)"/>
<rect id="Rectangle 62" x="383" y="470" width="26" height="26" fill="var(--fill-0, #F399BE)"/>
<rect id="Rectangle 65" x="448" y="650" width="26" height="26" fill="var(--fill-0, #F399BE)"/>
<rect id="Rectangle 68" x="383" y="344" width="26" height="26" fill="var(--fill-0, #F399BE)"/>
<rect id="Rectangle 71" x="110" y="47" width="26" height="26" transform="rotate(90 110 47)" fill="var(--fill-0, #F399BE)"/>
<rect id="Rectangle 74" x="237" y="47" width="26" height="26" transform="rotate(90 237 47)" fill="var(--fill-0, #F399BE)"/>
<rect id="Rectangle 63" x="383" y="498" width="26" height="26" fill="var(--fill-0, #F399BE)"/>
<rect id="Rectangle 66" x="448" y="678" width="26" height="26" fill="var(--fill-0, #F399BE)"/>
<rect id="Rectangle 69" x="383" y="372" width="26" height="26" fill="var(--fill-0, #F399BE)"/>
<rect id="Rectangle 72" x="82" y="47" width="26" height="26" transform="rotate(90 82 47)" fill="var(--fill-0, #F399BE)"/>
<rect id="Rectangle 75" x="209" y="47" width="26" height="26" transform="rotate(90 209 47)" fill="var(--fill-0, #F399BE)"/>
<circle id="Ellipse 5" cx="194" cy="897" r="3.5" fill="var(--fill-0, #999999)" stroke="var(--stroke-0, #999999)"/>
<circle id="Ellipse 39" cx="259" cy="897" r="3.5" fill="var(--fill-0, #999999)" stroke="var(--stroke-0, #999999)"/>
<path id="Vector 12" d="M4 36H69M264 36H69M264 36V4.5M264 36H329M69 36V4.5" stroke="var(--stroke-0, #999999)"/>
<circle id="Ellipse 54" cx="4" cy="36" r="3.5" fill="var(--fill-0, #999999)" stroke="var(--stroke-0, #999999)"/>
<circle id="Ellipse 56" cx="134" cy="36" r="3.5" fill="var(--fill-0, #999999)" stroke="var(--stroke-0, #999999)"/>
<circle id="Ellipse 58" cx="264" cy="36" r="3.5" fill="var(--fill-0, #999999)" stroke="var(--stroke-0, #999999)"/>
<circle id="Ellipse 60" cx="264" cy="4" r="3.5" fill="var(--fill-0, #999999)" stroke="var(--stroke-0, #999999)"/>
<circle id="Ellipse 55" cx="69" cy="36" r="3.5" fill="var(--fill-0, #999999)" stroke="var(--stroke-0, #999999)"/>
<circle id="Ellipse 57" cx="199" cy="36" r="3.5" fill="var(--fill-0, #999999)" stroke="var(--stroke-0, #999999)"/>
<circle id="Ellipse 59" cx="329" cy="36" r="3.5" fill="var(--fill-0, #999999)" stroke="var(--stroke-0, #999999)"/>
<circle id="Ellipse 6" cx="194" cy="832" r="3.5" fill="var(--fill-0, #999999)" stroke="var(--stroke-0, #999999)"/>
<circle id="Ellipse 40" cx="259" cy="832" r="3.5" fill="var(--fill-0, #999999)" stroke="var(--stroke-0, #999999)"/>
<circle id="Ellipse 7" cx="194" cy="822" r="3.5" fill="var(--fill-0, #999999)" stroke="var(--stroke-0, #999999)"/>
<circle id="Ellipse 41" cx="259" cy="822" r="3.5" fill="var(--fill-0, #999999)" stroke="var(--stroke-0, #999999)"/>
<circle id="Ellipse 8" cx="194" cy="759" r="3.5" fill="var(--fill-0, #999999)" stroke="var(--stroke-0, #999999)"/>
<circle id="Ellipse 9" cx="194" cy="692" r="3.5" fill="var(--fill-0, #999999)" stroke="var(--stroke-0, #999999)"/>
<circle id="Ellipse 10" cx="194" cy="628" r="3.5" fill="var(--fill-0, #999999)" stroke="var(--stroke-0, #999999)"/>
<circle id="Ellipse 12" cx="194" cy="564" r="3.5" fill="var(--fill-0, #999999)" stroke="var(--stroke-0, #999999)"/>
<circle id="Ellipse 14" cx="194" cy="496" r="3.5" fill="var(--fill-0, #999999)" stroke="var(--stroke-0, #999999)"/>
<circle id="Ellipse 16" cx="194" cy="434" r="3.5" fill="var(--fill-0, #999999)" stroke="var(--stroke-0, #999999)"/>
<circle id="Ellipse 18" cx="194" cy="368" r="3.5" fill="var(--fill-0, #999999)" stroke="var(--stroke-0, #999999)"/>
<circle id="Ellipse 42" cx="417" cy="312" r="3.5" fill="var(--fill-0, #999999)" stroke="var(--stroke-0, #999999)"/>
<circle id="Ellipse 44" cx="417" cy="377" r="3.5" fill="var(--fill-0, #999999)" stroke="var(--stroke-0, #999999)"/>
<circle id="Ellipse 48" cx="417" cy="507" r="3.5" fill="var(--fill-0, #999999)" stroke="var(--stroke-0, #999999)"/>
<circle id="Ellipse 46" cx="417" cy="442" r="3.5" fill="var(--fill-0, #999999)" stroke="var(--stroke-0, #999999)"/>
<circle id="Ellipse 49" cx="417" cy="572" r="3.5" fill="var(--fill-0, #999999)" stroke="var(--stroke-0, #999999)"/>
<circle id="Ellipse 43" cx="482" cy="312" r="3.5" fill="var(--fill-0, #999999)" stroke="var(--stroke-0, #999999)"/>
<circle id="Ellipse 45" cx="482" cy="377" r="3.5" fill="var(--fill-0, #999999)" stroke="var(--stroke-0, #999999)"/>
<circle id="Ellipse 50" cx="482" cy="507" r="3.5" fill="var(--fill-0, #999999)" stroke="var(--stroke-0, #999999)"/>
<circle id="Ellipse 52" cx="482" cy="637" r="3.5" fill="var(--fill-0, #999999)" stroke="var(--stroke-0, #999999)"/>
<circle id="Ellipse 47" cx="482" cy="442" r="3.5" fill="var(--fill-0, #999999)" stroke="var(--stroke-0, #999999)"/>
<circle id="Ellipse 51" cx="482" cy="572" r="3.5" fill="var(--fill-0, #999999)" stroke="var(--stroke-0, #999999)"/>
<circle id="Ellipse 53" cx="482" cy="702" r="3.5" fill="var(--fill-0, #999999)" stroke="var(--stroke-0, #999999)"/>
</g>
</svg>
