<svg preserveAspectRatio="none" width="100%" height="100%" overflow="visible" style="display: block;" viewBox="0 0 465 835" fill="none" xmlns="http://www.w3.org/2000/svg">
<g id="Group 4">
<rect id="Rectangle 58" x="183" y="576" width="53" height="65" fill="var(--fill-0, #23B575)"/>
<rect id="Rectangle 93" x="183" y="440" width="53" height="65" fill="var(--fill-0, #23B575)"/>
<rect id="Rectangle 95" x="183" y="304" width="53" height="65" fill="var(--fill-0, #23B575)"/>
<rect id="Rectangle 60" x="183" y="644" width="53" height="65" fill="var(--fill-0, #23B575)"/>
<rect id="Rectangle 94" x="183" y="508" width="53" height="65" fill="var(--fill-0, #23B575)"/>
<rect id="Rectangle 96" x="183" y="372" width="53" height="65" fill="var(--fill-0, #23B575)"/>
<rect id="Rectangle 78" x="387" y="488" width="26" height="26" transform="rotate(-180 387 488)" fill="var(--fill-0, #23B575)"/>
<rect id="Rectangle 81" x="387" y="357" width="26" height="26" transform="rotate(-180 387 357)" fill="var(--fill-0, #23B575)"/>
<rect id="Rectangle 87" x="229" y="80" width="26" height="26" transform="rotate(90 229 80)" fill="var(--fill-0, #23B575)"/>
<rect id="Rectangle 84" x="387" y="226" width="26" height="26" transform="rotate(-180 387 226)" fill="var(--fill-0, #23B575)"/>
<rect id="Rectangle 88" x="100" y="80" width="26" height="26" transform="rotate(90 100 80)" fill="var(--fill-0, #23B575)"/>
<rect id="Rectangle 79" x="387" y="460" width="26" height="26" transform="rotate(-180 387 460)" fill="var(--fill-0, #23B575)"/>
<rect id="Rectangle 82" x="387" y="329" width="26" height="26" transform="rotate(-180 387 329)" fill="var(--fill-0, #23B575)"/>
<rect id="Rectangle 89" x="201" y="80" width="26" height="26" transform="rotate(90 201 80)" fill="var(--fill-0, #23B575)"/>
<rect id="Rectangle 85" x="387" y="198" width="26" height="26" transform="rotate(-180 387 198)" fill="var(--fill-0, #23B575)"/>
<rect id="Rectangle 90" x="72" y="80" width="26" height="26" transform="rotate(90 72 80)" fill="var(--fill-0, #23B575)"/>
<rect id="Rectangle 80" x="387" y="432" width="26" height="26" transform="rotate(-180 387 432)" fill="var(--fill-0, #23B575)"/>
<rect id="Rectangle 83" x="387" y="301" width="26" height="26" transform="rotate(-180 387 301)" fill="var(--fill-0, #23B575)"/>
<rect id="Rectangle 91" x="173" y="80" width="26" height="26" transform="rotate(90 173 80)" fill="var(--fill-0, #23B575)"/>
<rect id="Rectangle 86" x="387" y="170" width="26" height="26" transform="rotate(-180 387 170)" fill="var(--fill-0, #23B575)"/>
<rect id="Rectangle 92" x="44" y="80" width="26" height="26" transform="rotate(90 44 80)" fill="var(--fill-0, #23B575)"/>
<rect id="Rectangle 56" x="177" y="766" width="65" height="65" fill="var(--fill-0, #23B575)"/>
<path id="Vector 9" d="M177 311V442.5V572V768" stroke="var(--stroke-0, #999999)"/>
<path id="Vector 10" d="M396 329V199.5V135H428.5M396 329V460M396 329H461M429 588H396V460M396 460H429" stroke="var(--stroke-0, #999999)"/>
<path id="Vector 11" d="M4 36.5V69H134M134 69H393.5V36.5M134 69V4" stroke="var(--stroke-0, #999999)"/>
<circle id="Ellipse 5" cx="177" cy="831" r="3.5" fill="var(--fill-0, #999999)" stroke="var(--stroke-0, #999999)"/>
<circle id="Ellipse 41" cx="242" cy="831" r="3.5" fill="var(--fill-0, #999999)" stroke="var(--stroke-0, #999999)"/>
<circle id="Ellipse 19" cx="396" cy="588" r="3.5" fill="var(--fill-0, #999999)" stroke="var(--stroke-0, #999999)"/>
<circle id="Ellipse 7" cx="177" cy="766" r="3.5" fill="var(--fill-0, #999999)" stroke="var(--stroke-0, #999999)"/>
<circle id="Ellipse 42" cx="242" cy="766" r="3.5" fill="var(--fill-0, #999999)" stroke="var(--stroke-0, #999999)"/>
<circle id="Ellipse 20" cx="396" cy="523" r="3.5" fill="var(--fill-0, #999999)" stroke="var(--stroke-0, #999999)"/>
<circle id="Ellipse 8" cx="177" cy="703" r="3.5" fill="var(--fill-0, #999999)" stroke="var(--stroke-0, #999999)"/>
<circle id="Ellipse 21" cx="396" cy="460" r="3.5" fill="var(--fill-0, #999999)" stroke="var(--stroke-0, #999999)"/>
<circle id="Ellipse 9" cx="177" cy="636" r="3.5" fill="var(--fill-0, #999999)" stroke="var(--stroke-0, #999999)"/>
<circle id="Ellipse 22" cx="396" cy="393" r="3.5" fill="var(--fill-0, #999999)" stroke="var(--stroke-0, #999999)"/>
<circle id="Ellipse 10" cx="177" cy="572" r="3.5" fill="var(--fill-0, #999999)" stroke="var(--stroke-0, #999999)"/>
<circle id="Ellipse 23" cx="396" cy="329" r="3.5" fill="var(--fill-0, #999999)" stroke="var(--stroke-0, #999999)"/>
<circle id="Ellipse 12" cx="177" cy="508" r="3.5" fill="var(--fill-0, #999999)" stroke="var(--stroke-0, #999999)"/>
<circle id="Ellipse 24" cx="396" cy="265" r="3.5" fill="var(--fill-0, #999999)" stroke="var(--stroke-0, #999999)"/>
<circle id="Ellipse 14" cx="177" cy="440" r="3.5" fill="var(--fill-0, #999999)" stroke="var(--stroke-0, #999999)"/>
<circle id="Ellipse 25" cx="396" cy="197" r="3.5" fill="var(--fill-0, #999999)" stroke="var(--stroke-0, #999999)"/>
<circle id="Ellipse 16" cx="177" cy="378" r="3.5" fill="var(--fill-0, #999999)" stroke="var(--stroke-0, #999999)"/>
<circle id="Ellipse 26" cx="396" cy="135" r="3.5" fill="var(--fill-0, #999999)" stroke="var(--stroke-0, #999999)"/>
<circle id="Ellipse 28" cx="429" cy="135" r="3.5" fill="var(--fill-0, #999999)" stroke="var(--stroke-0, #999999)"/>
<circle id="Ellipse 29" cx="461" cy="329" r="3.5" fill="var(--fill-0, #999999)" stroke="var(--stroke-0, #999999)"/>
<circle id="Ellipse 30" cx="429" cy="460" r="3.5" fill="var(--fill-0, #999999)" stroke="var(--stroke-0, #999999)"/>
<circle id="Ellipse 31" cx="429" cy="588" r="3.5" fill="var(--fill-0, #999999)" stroke="var(--stroke-0, #999999)"/>
<circle id="Ellipse 18" cx="177" cy="312" r="3.5" fill="var(--fill-0, #999999)" stroke="var(--stroke-0, #999999)"/>
<circle id="Ellipse 27" cx="394" cy="69" r="3.5" fill="var(--fill-0, #999999)" stroke="var(--stroke-0, #999999)"/>
<circle id="Ellipse 32" cx="394" cy="37" r="3.5" fill="var(--fill-0, #999999)" stroke="var(--stroke-0, #999999)"/>
<circle id="Ellipse 33" cx="329" cy="69" r="3.5" fill="var(--fill-0, #999999)" stroke="var(--stroke-0, #999999)"/>
<circle id="Ellipse 34" cx="264" cy="69" r="3.5" fill="var(--fill-0, #999999)" stroke="var(--stroke-0, #999999)"/>
<circle id="Ellipse 35" cx="199" cy="69" r="3.5" fill="var(--fill-0, #999999)" stroke="var(--stroke-0, #999999)"/>
<circle id="Ellipse 36" cx="134" cy="69" r="3.5" fill="var(--fill-0, #999999)" stroke="var(--stroke-0, #999999)"/>
<circle id="Ellipse 38" cx="69" cy="69" r="3.5" fill="var(--fill-0, #999999)" stroke="var(--stroke-0, #999999)"/>
<circle id="Ellipse 39" cx="4" cy="69" r="3.5" fill="var(--fill-0, #999999)" stroke="var(--stroke-0, #999999)"/>
<circle id="Ellipse 40" cx="4" cy="37" r="3.5" fill="var(--fill-0, #999999)" stroke="var(--stroke-0, #999999)"/>
<circle id="Ellipse 37" cx="134" cy="4" r="3.5" fill="var(--fill-0, #999999)" stroke="var(--stroke-0, #999999)"/>
</g>
</svg>
