<svg preserveAspectRatio="none" width="100%" height="100%" overflow="visible" style="display: block;" viewBox="0 0 515 837" fill="none" xmlns="http://www.w3.org/2000/svg">
<g id="Group 1">
<path id="Vector 9" d="M511 832V573M511 573H446V443.5M511 573V443.5M446 443.5V312H511V443.5M446 443.5H511" stroke="var(--stroke-0, #999999)"/>
<circle id="Ellipse 5" cx="511" cy="832" r="3.5" fill="var(--fill-0, #999999)" stroke="var(--stroke-0, #999999)"/>
<circle id="Ellipse 7" cx="511" cy="767" r="3.5" fill="var(--fill-0, #999999)" stroke="var(--stroke-0, #999999)"/>
<circle id="Ellipse 8" cx="511" cy="704" r="3.5" fill="var(--fill-0, #999999)" stroke="var(--stroke-0, #999999)"/>
<circle id="Ellipse 9" cx="511" cy="637" r="3.5" fill="var(--fill-0, #999999)" stroke="var(--stroke-0, #999999)"/>
<circle id="Ellipse 10" cx="511" cy="573" r="3.5" fill="var(--fill-0, #999999)" stroke="var(--stroke-0, #999999)"/>
<circle id="Ellipse 12" cx="511" cy="509" r="3.5" fill="var(--fill-0, #999999)" stroke="var(--stroke-0, #999999)"/>
<circle id="Ellipse 14" cx="511" cy="441" r="3.5" fill="var(--fill-0, #999999)" stroke="var(--stroke-0, #999999)"/>
<circle id="Ellipse 16" cx="511" cy="379" r="3.5" fill="var(--fill-0, #999999)" stroke="var(--stroke-0, #999999)"/>
<circle id="Ellipse 18" cx="511" cy="313" r="3.5" fill="var(--fill-0, #999999)" stroke="var(--stroke-0, #999999)"/>
<circle id="Ellipse 11" cx="446" cy="573" r="3.5" fill="var(--fill-0, #999999)" stroke="var(--stroke-0, #999999)"/>
<circle id="Ellipse 13" cx="446" cy="509" r="3.5" fill="var(--fill-0, #999999)" stroke="var(--stroke-0, #999999)"/>
<circle id="Ellipse 15" cx="446" cy="441" r="3.5" fill="var(--fill-0, #999999)" stroke="var(--stroke-0, #999999)"/>
<circle id="Ellipse 17" cx="446" cy="379" r="3.5" fill="var(--fill-0, #999999)" stroke="var(--stroke-0, #999999)"/>
<circle id="Ellipse 19" cx="446" cy="313" r="3.5" fill="var(--fill-0, #999999)" stroke="var(--stroke-0, #999999)"/>
<rect id="Rectangle 57" x="228" y="440" width="53" height="65" fill="var(--fill-0, #F4827E)"/>
<rect id="Rectangle 76" x="228" y="304" width="53" height="65" fill="var(--fill-0, #F4827E)"/>
<rect id="Rectangle 58" x="228" y="576" width="53" height="65" fill="var(--fill-0, #F4827E)"/>
<rect id="Rectangle 59" x="228" y="508" width="53" height="65" fill="var(--fill-0, #F4827E)"/>
<rect id="Rectangle 77" x="228" y="372" width="53" height="65" fill="var(--fill-0, #F4827E)"/>
<rect id="Rectangle 60" x="228" y="644" width="53" height="65" fill="var(--fill-0, #F4827E)"/>
<rect id="Rectangle 56" x="222" y="768" width="65" height="65" fill="var(--fill-0, #F4827E)"/>
<path id="Vector 11" d="M222 313V443V573V703V767.5" stroke="var(--stroke-0, #999999)"/>
<rect id="Rectangle 70" x="136" y="48" width="26" height="26" transform="rotate(90 136 48)" fill="var(--fill-0, #F4827E)"/>
<rect id="Rectangle 73" x="281" y="48" width="26" height="26" transform="rotate(90 281 48)" fill="var(--fill-0, #F4827E)"/>
<rect id="Rectangle 78" x="502" y="703" width="26" height="26" transform="rotate(-180 502 703)" fill="var(--fill-0, #F4827E)"/>
<rect id="Rectangle 81" x="436" y="525" width="26" height="26" transform="rotate(-180 436 525)" fill="var(--fill-0, #F4827E)"/>
<rect id="Rectangle 84" x="436" y="399" width="26" height="26" transform="rotate(-180 436 399)" fill="var(--fill-0, #F4827E)"/>
<rect id="Rectangle 71" x="108" y="48" width="26" height="26" transform="rotate(90 108 48)" fill="var(--fill-0, #F4827E)"/>
<rect id="Rectangle 74" x="253" y="48" width="26" height="26" transform="rotate(90 253 48)" fill="var(--fill-0, #F4827E)"/>
<rect id="Rectangle 79" x="502" y="675" width="26" height="26" transform="rotate(-180 502 675)" fill="var(--fill-0, #F4827E)"/>
<rect id="Rectangle 82" x="436" y="497" width="26" height="26" transform="rotate(-180 436 497)" fill="var(--fill-0, #F4827E)"/>
<rect id="Rectangle 85" x="436" y="371" width="26" height="26" transform="rotate(-180 436 371)" fill="var(--fill-0, #F4827E)"/>
<rect id="Rectangle 72" x="80" y="48" width="26" height="26" transform="rotate(90 80 48)" fill="var(--fill-0, #F4827E)"/>
<rect id="Rectangle 75" x="225" y="48" width="26" height="26" transform="rotate(90 225 48)" fill="var(--fill-0, #F4827E)"/>
<rect id="Rectangle 80" x="502" y="647" width="26" height="26" transform="rotate(-180 502 647)" fill="var(--fill-0, #F4827E)"/>
<rect id="Rectangle 83" x="436" y="469" width="26" height="26" transform="rotate(-180 436 469)" fill="var(--fill-0, #F4827E)"/>
<rect id="Rectangle 86" x="436" y="343" width="26" height="26" transform="rotate(-180 436 343)" fill="var(--fill-0, #F4827E)"/>
<path id="Vector 12" d="M327 69V36.7481H262.4H197.8M4 4V36.7481H68.6H197.8M197.8 36.7481V4" stroke="var(--stroke-0, #999999)"/>
<circle id="Ellipse 54" cx="4" cy="37" r="3.5" fill="var(--fill-0, #999999)" stroke="var(--stroke-0, #999999)"/>
<circle id="Ellipse 66" cx="4" cy="5" r="3.5" fill="var(--fill-0, #999999)" stroke="var(--stroke-0, #999999)"/>
<circle id="Ellipse 67" cx="198" cy="4" r="3.5" fill="var(--fill-0, #999999)" stroke="var(--stroke-0, #999999)"/>
<circle id="Ellipse 56" cx="132" cy="37" r="3.5" fill="var(--fill-0, #999999)" stroke="var(--stroke-0, #999999)"/>
<circle id="Ellipse 58" cx="262" cy="37" r="3.5" fill="var(--fill-0, #999999)" stroke="var(--stroke-0, #999999)"/>
<circle id="Ellipse 55" cx="69" cy="37" r="3.5" fill="var(--fill-0, #999999)" stroke="var(--stroke-0, #999999)"/>
<circle id="Ellipse 57" cx="198" cy="37" r="3.5" fill="var(--fill-0, #999999)" stroke="var(--stroke-0, #999999)"/>
<circle id="Ellipse 59" cx="327" cy="37" r="3.5" fill="var(--fill-0, #999999)" stroke="var(--stroke-0, #999999)"/>
<circle id="Ellipse 65" cx="327" cy="69" r="3.5" fill="var(--fill-0, #999999)" stroke="var(--stroke-0, #999999)"/>
<circle id="Ellipse 43" cx="222" cy="313" r="3.5" fill="var(--fill-0, #999999)" stroke="var(--stroke-0, #999999)"/>
<circle id="Ellipse 45" cx="222" cy="378" r="3.5" fill="var(--fill-0, #999999)" stroke="var(--stroke-0, #999999)"/>
<circle id="Ellipse 50" cx="222" cy="508" r="3.5" fill="var(--fill-0, #999999)" stroke="var(--stroke-0, #999999)"/>
<circle id="Ellipse 52" cx="222" cy="638" r="3.5" fill="var(--fill-0, #999999)" stroke="var(--stroke-0, #999999)"/>
<circle id="Ellipse 47" cx="222" cy="443" r="3.5" fill="var(--fill-0, #999999)" stroke="var(--stroke-0, #999999)"/>
<circle id="Ellipse 51" cx="222" cy="573" r="3.5" fill="var(--fill-0, #999999)" stroke="var(--stroke-0, #999999)"/>
<circle id="Ellipse 53" cx="222" cy="703" r="3.5" fill="var(--fill-0, #999999)" stroke="var(--stroke-0, #999999)"/>
<circle id="Ellipse 61" cx="222" cy="768" r="3.5" fill="var(--fill-0, #999999)" stroke="var(--stroke-0, #999999)"/>
<circle id="Ellipse 63" cx="222" cy="833" r="3.5" fill="var(--fill-0, #999999)" stroke="var(--stroke-0, #999999)"/>
<circle id="Ellipse 62" cx="287" cy="768" r="3.5" fill="var(--fill-0, #999999)" stroke="var(--stroke-0, #999999)"/>
<circle id="Ellipse 64" cx="287" cy="833" r="3.5" fill="var(--fill-0, #999999)" stroke="var(--stroke-0, #999999)"/>
</g>
</svg>
